# xmcd
#
# Track frame offsets: 
#        150
#        22160
#        38230
#        54358
#        72273
#        86121
#        104345
#        126068
#        143500
#        188095
#        216738
#        231747
#
# Disc length: 3427 seconds
#
# Revision: 0
# Processed by: cddbd v1.4PL0 Copyright (c) Steve Scherf et al.
# Submitted via: ExactAudioCopy v0.90b4
#
DISCID=b50d610c
DTITLE=George Faber - Blues
DYEAR=2002
DGENRE=Blues
TTITLE0=Takes A Better Man
TTITLE1=My Baby
TTITLE2=Rocket 88
TTITLE3=River of Tears
TTITLE4=I Am Comin' Back
TTITLE5=Smooth
TTITLE6=Dump The Bum
TTITLE7=Still Water Runs Deep
TTITLE8=Down At Your Burying
TTITLE9=Help Me
TTITLE10=Hoo Doo Man
TTITLE11=Why I Sing The Blues
EXTD=
EXTT0=
EXTT1=
EXTT2=
EXTT3=
EXTT4=
EXTT5=
EXTT6=
EXTT7=
EXTT8=
EXTT9=
EXTT10=
EXTT11=
PLAYORDER=
